<?xml version="1.0" encoding="UTF-8" standalone="no"?>
<!DOCTYPE svg PUBLIC "-//W3C//DTD SVG 1.1//EN"
 "http://www.w3.org/Graphics/SVG/1.1/DTD/svg11.dtd">
<!-- Generated by graphviz version 2.44.1 (20200629.0846)
 -->
<!-- Title: g Pages: 1 -->
<svg width="1020pt" height="1980pt"
 viewBox="0.00 0.00 1020.00 1980.40" xmlns="http://www.w3.org/2000/svg" xmlns:xlink="http://www.w3.org/1999/xlink">
<g id="graph0" class="graph" transform="scale(1 1) rotate(0) translate(4 1976.4)">
<title>g</title>
<polygon fill="white" stroke="transparent" points="-4,4 -4,-1976.4 1016,-1976.4 1016,4 -4,4"/>
<g id="clust2" class="cluster">
<title>cluster_1830861979</title>
<polygon fill="#ececec" stroke="black" points="422,-795.2 422,-1150 908,-1150 908,-795.2 422,-795.2"/>
<text text-anchor="middle" x="450.99" y="-1133.4" font-family="Times New Roman,serif" font-size="14.00">Library</text>
</g>
<g id="clust3" class="cluster">
<title>cluster_1851112221</title>
<polygon fill="#ececec" stroke="black" points="450,-294.4 450,-409.2 684,-409.2 684,-294.4 450,-294.4"/>
<text text-anchor="middle" x="477.82" y="-392.6" font-family="Times New Roman,serif" font-size="14.00">Reader</text>
</g>
<g id="clust1" class="cluster">
<title>cluster_1478241800</title>
<polygon fill="#ececec" stroke="black" points="705,-313.4 705,-390.2 801,-390.2 801,-313.4 705,-313.4"/>
<text text-anchor="middle" x="739.04" y="-373.6" font-family="Times New Roman,serif" font-size="14.00">Librarian</text>
</g>
<g id="clust4" class="cluster">
<title>cluster_2076425</title>
<polygon fill="#ececec" stroke="black" points="681,-8 681,-242.8 861,-242.8 861,-8 681,-8"/>
<text text-anchor="middle" x="704.17" y="-226.2" font-family="Times New Roman,serif" font-size="14.00">Book</text>
</g>
<g id="clust5" class="cluster">
<title>cluster_2645995</title>
<polygon fill="#ececec" stroke="black" points="579,-460.8 579,-743.6 751,-743.6 751,-460.8 579,-460.8"/>
<text text-anchor="middle" x="600.21" y="-727" font-family="Times New Roman,serif" font-size="14.00">User</text>
</g>
<g id="clust6" class="cluster">
<title>cluster_66049</title>
<polygon fill="#ececec" stroke="black" points="8,-1201.6 8,-1964.4 1004,-1964.4 1004,-1201.6 8,-1201.6"/>
<text text-anchor="middle" x="28.05" y="-1947.8" font-family="Times New Roman,serif" font-size="14.00">App</text>
</g>
<!-- Librarian1478241800 -->
<g id="node1" class="node">
<title>Librarian1478241800</title>
<polygon fill="#ffffff" stroke="transparent" points="793,-357.4 713,-357.4 713,-321.4 793,-321.4 793,-357.4"/>
<text text-anchor="start" x="717.63" y="-334.8" font-family="Times New Roman,serif" font-size="14.00">(C)Librarian</text>
<polygon fill="none" stroke="black" points="713,-326.4 713,-352.4 793,-352.4 793,-326.4 713,-326.4"/>
</g>
<!-- Library1830861979 -->
<g id="node2" class="node">
<title>Library1830861979</title>
<polygon fill="#ffffff" stroke="transparent" points="900,-1117.2 430,-1117.2 430,-803.2 900,-803.2 900,-1117.2"/>
<text text-anchor="start" x="435" y="-1099.6" font-family="Times New Roman,serif" font-size="14.00">(C)Library</text>
<text text-anchor="start" x="435" y="-1075.6" font-family="Times New Roman,serif" font-size="14.00"># &#160;&#160;books: ArrayList&lt;Book&gt; [0..*]</text>
<text text-anchor="start" x="435" y="-1051.6" font-family="Times New Roman,serif" font-size="14.00"># &#160;&#160;librarians: ArrayList&lt;Librarian&gt; [0..*]</text>
<text text-anchor="start" x="435" y="-1027.6" font-family="Times New Roman,serif" font-size="14.00"># &#160;&#160;readers: ArrayList&lt;Reader&gt; [0..*]</text>
<text text-anchor="start" x="435" y="-1003.6" font-family="Times New Roman,serif" font-size="14.00"># &#160;&#160;users: ArrayList&lt;User&gt; [0..*]</text>
<text text-anchor="start" x="435" y="-979.6" font-family="Times New Roman,serif" font-size="14.00">+ Block(reader: Reader): Book</text>
<text text-anchor="start" x="435" y="-955.6" font-family="Times New Roman,serif" font-size="14.00">+ BookRemoval(Title: String, isbn: String, books: ArrayList&lt;Book&gt;): Book</text>
<text text-anchor="start" x="435" y="-931.6" font-family="Times New Roman,serif" font-size="14.00">+ CompareDataFields(DATA: String, users: ArrayList&lt;User&gt;): Boolean</text>
<text text-anchor="start" x="434.67" y="-907.6" font-family="Times New Roman,serif" font-size="14.00">+ CompareDataFieldsPassword(DATA: String, users: ArrayList&lt;User&gt;): Boolean</text>
<text text-anchor="start" x="435" y="-883.6" font-family="Times New Roman,serif" font-size="14.00">+ EmailCheck(Email: String): boolean</text>
<text text-anchor="start" x="435" y="-859.6" font-family="Times New Roman,serif" font-size="14.00">+ SearchBook(Serial: String, books: ArrayList&lt;Book&gt;): Book</text>
<text text-anchor="start" x="435" y="-835.6" font-family="Times New Roman,serif" font-size="14.00">+ SearchU(ID: String, users: ArrayList&lt;User&gt;): User</text>
<text text-anchor="start" x="435" y="-811.6" font-family="Times New Roman,serif" font-size="14.00">+ getUserType(id: String, password: String, users: ArrayList&lt;User&gt;): User</text>
<polygon fill="black" stroke="black" points="430,-1092.2 430,-1092.2 900,-1092.2 900,-1092.2 430,-1092.2"/>
<polygon fill="black" stroke="black" points="430,-996.2 430,-996.2 900,-996.2 900,-996.2 430,-996.2"/>
<polygon fill="none" stroke="black" points="430,-803.2 430,-1117.2 900,-1117.2 900,-803.2 430,-803.2"/>
</g>
<!-- Library1830861979&#45;&gt;Librarian1478241800 -->
<g id="edge4" class="edge">
<title>Library1830861979&#45;&gt;Librarian1478241800</title>
<path fill="none" stroke="black" d="M730.17,-803.08C744.24,-769.37 755,-743.6 755,-743.6 755,-743.6 755,-460.8 755,-460.8 755,-460.8 754.05,-403.43 753.46,-367.89"/>
<polygon fill="black" stroke="black" points="756.95,-367.59 753.29,-357.65 749.95,-367.71 756.95,-367.59"/>
<text text-anchor="middle" x="781.43" y="-594" font-family="Times New Roman,serif" font-size="14.00">librarians</text>
<text text-anchor="middle" x="781.43" y="-577.2" font-family="Times New Roman,serif" font-size="14.00">[0..*]</text>
</g>
<!-- Reader1851112221 -->
<g id="node3" class="node">
<title>Reader1851112221</title>
<polygon fill="#ffffff" stroke="transparent" points="676,-376.4 458,-376.4 458,-302.4 676,-302.4 676,-376.4"/>
<text text-anchor="start" x="463" y="-358.8" font-family="Times New Roman,serif" font-size="14.00">(C)Reader</text>
<text text-anchor="start" x="462.88" y="-334.8" font-family="Times New Roman,serif" font-size="14.00">&#45; &#160;&#160;orderList: ArrayList&lt;Book&gt; [0..*]</text>
<text text-anchor="start" x="463" y="-310.8" font-family="Times New Roman,serif" font-size="14.00">+ addToOrderList(book: Book)</text>
<polygon fill="black" stroke="black" points="458,-351.4 458,-351.4 676,-351.4 676,-351.4 458,-351.4"/>
<polygon fill="black" stroke="black" points="458,-327.4 458,-327.4 676,-327.4 676,-327.4 458,-327.4"/>
<polygon fill="none" stroke="black" points="458,-302.4 458,-376.4 676,-376.4 676,-302.4 458,-302.4"/>
</g>
<!-- Library1830861979&#45;&gt;Reader1851112221 -->
<g id="edge5" class="edge">
<title>Library1830861979&#45;&gt;Reader1851112221</title>
<path fill="none" stroke="black" d="M570.57,-803.08C550.18,-769.37 534.59,-743.6 534.59,-743.6 534.59,-743.6 534.59,-460.8 534.59,-460.8 534.59,-460.8 545.47,-420.37 554.63,-386.36"/>
<polygon fill="black" stroke="black" points="558.06,-387.09 557.28,-376.52 551.3,-385.27 558.06,-387.09"/>
<text text-anchor="middle" x="554.2" y="-594" font-family="Times New Roman,serif" font-size="14.00">readers</text>
<text text-anchor="middle" x="554.2" y="-577.2" font-family="Times New Roman,serif" font-size="14.00">[0..*]</text>
</g>
<!-- Book2076425 -->
<g id="node4" class="node">
<title>Book2076425</title>
<polygon fill="#ffffff" stroke="transparent" points="852.5,-210 689.5,-210 689.5,-16 852.5,-16 852.5,-210"/>
<text text-anchor="start" x="695" y="-192.4" font-family="Times New Roman,serif" font-size="14.00">(C)Book</text>
<text text-anchor="start" x="695" y="-168.4" font-family="Times New Roman,serif" font-size="14.00">&#45; &#160;&#160;Author: String [0..1]</text>
<text text-anchor="start" x="695" y="-144.4" font-family="Times New Roman,serif" font-size="14.00">&#45; &#160;&#160;Rentdate: Date [0..1]</text>
<text text-anchor="start" x="695" y="-120.4" font-family="Times New Roman,serif" font-size="14.00">&#45; &#160;&#160;Serial: String [0..1]</text>
<text text-anchor="start" x="695" y="-96.4" font-family="Times New Roman,serif" font-size="14.00">&#45; &#160;&#160;date: Date [0..1]</text>
<text text-anchor="start" x="694.72" y="-72.4" font-family="Times New Roman,serif" font-size="14.00">&#45; &#160;&#160;is_available: boolean [1]</text>
<text text-anchor="start" x="695" y="-48.4" font-family="Times New Roman,serif" font-size="14.00">&#45; &#160;&#160;title: String [0..1]</text>
<text text-anchor="start" x="695" y="-24.4" font-family="Times New Roman,serif" font-size="14.00">+ Is_available(): boolean</text>
<polygon fill="black" stroke="black" points="690,-185 690,-185 853,-185 853,-185 690,-185"/>
<polygon fill="black" stroke="black" points="690,-41 690,-41 853,-41 853,-41 690,-41"/>
<polygon fill="none" stroke="black" points="689.5,-16 689.5,-210 852.5,-210 852.5,-16 689.5,-16"/>
</g>
<!-- Library1830861979&#45;&gt;Book2076425 -->
<g id="edge3" class="edge">
<title>Library1830861979&#45;&gt;Book2076425</title>
<path fill="none" stroke="black" d="M771.44,-803.08C794.43,-769.37 812,-743.6 812,-743.6 812,-743.6 812,-460.8 812,-460.8 812,-460.8 805,-294.4 805,-294.4 805,-294.4 798.38,-259.29 790.99,-220.06"/>
<polygon fill="black" stroke="black" points="794.39,-219.19 789.1,-210.01 787.51,-220.49 794.39,-219.19"/>
<text text-anchor="middle" x="827.72" y="-438.2" font-family="Times New Roman,serif" font-size="14.00">books</text>
<text text-anchor="middle" x="827.72" y="-421.4" font-family="Times New Roman,serif" font-size="14.00">[0..*]</text>
</g>
<!-- User2645995 -->
<g id="node5" class="node">
<title>User2645995</title>
<polygon fill="#ffffff" stroke="transparent" points="743,-710.8 587,-710.8 587,-468.8 743,-468.8 743,-710.8"/>
<text text-anchor="start" x="592" y="-693.2" font-family="Times New Roman,serif" font-size="14.00">(C)User</text>
<text text-anchor="start" x="592" y="-669.2" font-family="Times New Roman,serif" font-size="14.00">&#45; &#160;&#160;address: String [0..1]</text>
<text text-anchor="start" x="592" y="-645.2" font-family="Times New Roman,serif" font-size="14.00">&#45; &#160;&#160;cellPhone: String [0..1]</text>
<text text-anchor="start" x="592" y="-621.2" font-family="Times New Roman,serif" font-size="14.00">&#45; &#160;&#160;email: String [0..1]</text>
<text text-anchor="start" x="591.71" y="-597.2" font-family="Times New Roman,serif" font-size="14.00">&#45; &#160;&#160;firstName: String [0..1]</text>
<text text-anchor="start" x="592" y="-573.2" font-family="Times New Roman,serif" font-size="14.00">&#45; &#160;&#160;id: String [0..1]</text>
<text text-anchor="start" x="592" y="-549.2" font-family="Times New Roman,serif" font-size="14.00">&#45; &#160;&#160;isBlocked: boolean [1]</text>
<text text-anchor="start" x="592" y="-525.2" font-family="Times New Roman,serif" font-size="14.00">&#45; &#160;&#160;lastName: String [0..1]</text>
<text text-anchor="start" x="592" y="-501.2" font-family="Times New Roman,serif" font-size="14.00">&#45; &#160;&#160;password: String [0..1]</text>
<text text-anchor="start" x="592" y="-477.2" font-family="Times New Roman,serif" font-size="14.00">&#45; &#160;&#160;type: String [0..1]</text>
<polygon fill="black" stroke="black" points="587,-685.8 587,-685.8 743,-685.8 743,-685.8 587,-685.8"/>
<polygon fill="none" stroke="black" points="587,-468.8 587,-710.8 743,-710.8 743,-468.8 587,-468.8"/>
</g>
<!-- Library1830861979&#45;&gt;User2645995 -->
<g id="edge6" class="edge">
<title>Library1830861979&#45;&gt;User2645995</title>
<path fill="none" stroke="black" d="M665,-802.97C665,-775.66 665,-747.52 665,-721.02"/>
<polygon fill="black" stroke="black" points="668.5,-720.95 665,-710.95 661.5,-720.95 668.5,-720.95"/>
<text text-anchor="middle" x="680.16" y="-772.6" font-family="Times New Roman,serif" font-size="14.00">users</text>
<text text-anchor="middle" x="680.16" y="-755.8" font-family="Times New Roman,serif" font-size="14.00">[0..*]</text>
</g>
<!-- Reader1851112221&#45;&gt;Book2076425 -->
<g id="edge7" class="edge">
<title>Reader1851112221&#45;&gt;Book2076425</title>
<path fill="none" stroke="black" d="M599.78,-302.35C622.19,-277.69 653.06,-243.73 682.42,-211.44"/>
<polygon fill="black" stroke="black" points="685.3,-213.47 689.44,-203.71 680.13,-208.76 685.3,-213.47"/>
<text text-anchor="middle" x="669.66" y="-271.8" font-family="Times New Roman,serif" font-size="14.00">orderList</text>
<text text-anchor="middle" x="669.66" y="-255" font-family="Times New Roman,serif" font-size="14.00">[0..*]</text>
</g>
<!-- User2645995&#45;&gt;Librarian1478241800 -->
<g id="edge8" class="edge">
<title>User2645995&#45;&gt;Librarian1478241800</title>
<path fill="none" stroke="black" d="M711,-458.95C725.21,-418.84 739.14,-379.52 746.85,-357.76"/>
<polygon fill="none" stroke="black" points="707.62,-458.01 707.58,-468.6 714.22,-460.34 707.62,-458.01"/>
</g>
<!-- User2645995&#45;&gt;Reader1851112221 -->
<g id="edge9" class="edge">
<title>User2645995&#45;&gt;Reader1851112221</title>
<path fill="none" stroke="black" d="M613.85,-459.16C601.86,-428.76 590.04,-398.79 581.27,-376.57"/>
<polygon fill="none" stroke="black" points="610.65,-460.58 617.58,-468.6 617.16,-458.02 610.65,-460.58"/>
</g>
<!-- App66049 -->
<g id="node6" class="node">
<title>App66049</title>
<polygon fill="#ffffff" stroke="transparent" points="996,-1931.6 16,-1931.6 16,-1209.6 996,-1209.6 996,-1931.6"/>
<text text-anchor="start" x="21" y="-1914" font-family="Times New Roman,serif" font-size="14.00">(C)App</text>
<text text-anchor="start" x="21" y="-1890" font-family="Times New Roman,serif" font-size="14.00">&#45; &#160;&#160;idField: TextField [0..1]</text>
<text text-anchor="start" x="21" y="-1866" font-family="Times New Roman,serif" font-size="14.00">&#45; &#160;&#160;idLabel: Label [0..1]</text>
<text text-anchor="start" x="21" y="-1842" font-family="Times New Roman,serif" font-size="14.00">&#45; &#160;&#160;iteration: int [1]</text>
<text text-anchor="start" x="21" y="-1818" font-family="Times New Roman,serif" font-size="14.00"># &#160;&#160;library: Library [0..1]</text>
<text text-anchor="start" x="21" y="-1794" font-family="Times New Roman,serif" font-size="14.00">&#45; &#160;&#160;loginButton: Button [0..1]</text>
<text text-anchor="start" x="21" y="-1770" font-family="Times New Roman,serif" font-size="14.00">&#45; &#160;&#160;loginLabel: Label [0..1]</text>
<text text-anchor="start" x="21" y="-1746" font-family="Times New Roman,serif" font-size="14.00">&#45; &#160;&#160;loginScene: Scene [0..1]</text>
<text text-anchor="start" x="21" y="-1722" font-family="Times New Roman,serif" font-size="14.00">&#45; &#160;&#160;messageLabel: Label [0..1]</text>
<text text-anchor="start" x="21" y="-1698" font-family="Times New Roman,serif" font-size="14.00">&#45; &#160;&#160;passwordField: PasswordField [0..1]</text>
<text text-anchor="start" x="21" y="-1674" font-family="Times New Roman,serif" font-size="14.00">&#45; &#160;&#160;passwordLabel: Label [0..1]</text>
<text text-anchor="start" x="21" y="-1650" font-family="Times New Roman,serif" font-size="14.00">&#45; &#160;&#160;root: BorderPane [0..1]</text>
<text text-anchor="start" x="21" y="-1626" font-family="Times New Roman,serif" font-size="14.00">&#45; &#160;&#160;stage: Stage [0..1]</text>
<text text-anchor="start" x="21" y="-1602" font-family="Times New Roman,serif" font-size="14.00">&#45; ShowAddUser(user: User, users: ArrayList&lt;User&gt;, readers: ArrayList&lt;Reader&gt;, books: ArrayList&lt;Book&gt;, librarians: ArrayList&lt;Librarian&gt;)</text>
<text text-anchor="start" x="21" y="-1578" font-family="Times New Roman,serif" font-size="14.00">&#45; ShowOrderList(user: User, users: ArrayList&lt;User&gt;, readers: ArrayList&lt;Reader&gt;, books: ArrayList&lt;Book&gt;, librarians: ArrayList&lt;Librarian&gt;)</text>
<text text-anchor="start" x="21" y="-1554" font-family="Times New Roman,serif" font-size="14.00">&#45; ShowRemoveUserScene(user: User, users: ArrayList&lt;User&gt;, readers: ArrayList&lt;Reader&gt;, books: ArrayList&lt;Book&gt;, librarians: ArrayList&lt;Librarian&gt;)</text>
<text text-anchor="start" x="21" y="-1530" font-family="Times New Roman,serif" font-size="14.00">&#45; ShowRentBookScene(user: User, users: ArrayList&lt;User&gt;, readers: ArrayList&lt;Reader&gt;, books: ArrayList&lt;Book&gt;, librarians: ArrayList&lt;Librarian&gt;)</text>
<text text-anchor="start" x="21" y="-1506" font-family="Times New Roman,serif" font-size="14.00">&#45; ShowSearchBook(user: User, users: ArrayList&lt;User&gt;, readers: ArrayList&lt;Reader&gt;, books: ArrayList&lt;Book&gt;, librarians: ArrayList&lt;Librarian&gt;)</text>
<text text-anchor="start" x="21" y="-1482" font-family="Times New Roman,serif" font-size="14.00">+ main(args: String[])</text>
<text text-anchor="start" x="21" y="-1458" font-family="Times New Roman,serif" font-size="14.00">&#45; showAddBookScene(user: User, users: ArrayList&lt;User&gt;, readers: ArrayList&lt;Reader&gt;, books: ArrayList&lt;Book&gt;, librarians: ArrayList&lt;Librarian&gt;)</text>
<text text-anchor="start" x="21" y="-1434" font-family="Times New Roman,serif" font-size="14.00">&#45; showBlockUserScene(user: User, users: ArrayList&lt;User&gt;, readers: ArrayList&lt;Reader&gt;, books: ArrayList&lt;Book&gt;, librarians: ArrayList&lt;Librarian&gt;)</text>
<text text-anchor="start" x="21" y="-1410" font-family="Times New Roman,serif" font-size="14.00">&#45; showBook(book: Book, user: User, users: ArrayList&lt;User&gt;, readers: ArrayList&lt;Reader&gt;, books: ArrayList&lt;Book&gt;, librarians: ArrayList&lt;Librarian&gt;)</text>
<text text-anchor="start" x="20.73" y="-1386" font-family="Times New Roman,serif" font-size="14.00">&#45; showBookScroll(user: User, book: Book, Change: Book, users: ArrayList&lt;User&gt;, readers: ArrayList&lt;Reader&gt;, books: ArrayList&lt;Book&gt;, librarians: ArrayList&lt;Librarian&gt;)</text>
<text text-anchor="start" x="21" y="-1362" font-family="Times New Roman,serif" font-size="14.00">&#45; showLibrarianDashboard(user: User, users: ArrayList&lt;User&gt;, readers: ArrayList&lt;Reader&gt;, books: ArrayList&lt;Book&gt;, librarians: ArrayList&lt;Librarian&gt;)</text>
<text text-anchor="start" x="21" y="-1338" font-family="Times New Roman,serif" font-size="14.00">&#45; showReaderDashboard(user: User, users: ArrayList&lt;User&gt;, readers: ArrayList&lt;Reader&gt;, books: ArrayList&lt;Book&gt;, librarians: ArrayList&lt;Librarian&gt;)</text>
<text text-anchor="start" x="21" y="-1314" font-family="Times New Roman,serif" font-size="14.00">&#45; showRemoveBookScene(user: User, users: ArrayList&lt;User&gt;, readers: ArrayList&lt;Reader&gt;, books: ArrayList&lt;Book&gt;, librarians: ArrayList&lt;Librarian&gt;)</text>
<text text-anchor="start" x="21" y="-1290" font-family="Times New Roman,serif" font-size="14.00">&#45; showSearchUserScene(user: User, users: ArrayList&lt;User&gt;, readers: ArrayList&lt;Reader&gt;, books: ArrayList&lt;Book&gt;, librarians: ArrayList&lt;Librarian&gt;)</text>
<text text-anchor="start" x="21" y="-1266" font-family="Times New Roman,serif" font-size="14.00">&#45; showUser(user: User, SearchingUser: User, users: ArrayList&lt;User&gt;, readers: ArrayList&lt;Reader&gt;, books: ArrayList&lt;Book&gt;, librarians: ArrayList&lt;Librarian&gt;)</text>
<text text-anchor="start" x="21" y="-1242" font-family="Times New Roman,serif" font-size="14.00">&#45; showUserScroll(user: User, Change: User, users: ArrayList&lt;User&gt;, readers: ArrayList&lt;Reader&gt;, books: ArrayList&lt;Book&gt;, librarians: ArrayList&lt;Librarian&gt;)</text>
<text text-anchor="start" x="21" y="-1218" font-family="Times New Roman,serif" font-size="14.00">+ start(primaryStage: Stage)</text>
<polygon fill="black" stroke="black" points="16,-1906.6 16,-1906.6 996,-1906.6 996,-1906.6 16,-1906.6"/>
<polygon fill="black" stroke="black" points="16,-1618.6 16,-1618.6 996,-1618.6 996,-1618.6 16,-1618.6"/>
<polygon fill="none" stroke="black" points="16,-1209.6 16,-1931.6 996,-1931.6 996,-1209.6 16,-1209.6"/>
</g>
<!-- App66049&#45;&gt;Library1830861979 -->
<g id="edge1" class="edge">
<title>App66049&#45;&gt;Library1830861979</title>
<path fill="none" stroke="black" d="M600.1,-1209.54C607.53,-1181.1 614.79,-1153.33 621.59,-1127.29"/>
<polygon fill="black" stroke="black" points="625.04,-1127.95 624.18,-1117.39 618.27,-1126.18 625.04,-1127.95"/>
<text text-anchor="middle" x="627.66" y="-1179" font-family="Times New Roman,serif" font-size="14.00">library</text>
<text text-anchor="middle" x="627.66" y="-1162.2" font-family="Times New Roman,serif" font-size="14.00">[0..1]</text>
</g>
<!-- App66049&#45;&gt;Reader1851112221 -->
<g id="edge2" class="edge">
<title>App66049&#45;&gt;Reader1851112221</title>
<path fill="none" stroke="black" d="M404.34,-1209.54C346.11,-1003.33 284.52,-785.2 284.52,-785.2 284.52,-785.2 284.52,-751.6 284.52,-751.6 284.52,-751.6 463.43,-491.17 536.48,-384.82"/>
<polygon fill="black" stroke="black" points="539.4,-386.76 542.18,-376.53 533.63,-382.79 539.4,-386.76"/>
<text text-anchor="middle" x="409.24" y="-764.2" font-family="Times New Roman,serif" font-size="14.00">ShowRentBookScene() &#45;&gt; addToOrderList()</text>
</g>
</g>
</svg>
